<?xml version="1.0" encoding="UTF-8" standalone="no"?>
<svg
   xmlnsOsb="http://www.openswatchbook.org/uri/2009/osb"
   xmlnsDc="http://purl.org/dc/elements/1.1/"
   xmlnsCc="http://creativecommons.org/ns#"
   xmlnsRdf="http://www.w3.org/1999/02/22-rdf-syntax-ns#"
   xmlnsSvg="http://www.w3.org/2000/svg"
   xmlns="http://www.w3.org/2000/svg"
   xmlnsSodipodi="http://sodipodi.sourceforge.net/DTD/sodipodi-0.dtd"
   xmlnsInkscape="http://www.inkscape.org/namespaces/inkscape"
   width="169.84351"
   height="46.296299"
   viewBox="2.7755576e-17 0 152.85916 41.666669"
   version="1.1"
   id="svg3761"
   sodipodiDocname="logo.svg"
   inkscapeVersion="0.92.4 (f8dce91, 2019-08-02)"
   style="enable-background:new">
  <metadata
     id="metadata3767">
    <rdfRDF>
      <ccWork
         rdfAbout="">
        <dcformat>image/svg+xml</dcformat>
        <dctype
           rdfResource="http://purl.org/dc/dcmitype/StillImage" />
        <dctitle></dctitle>
      </ccWork>
    </rdfRDF>
  </metadata>
  <defs
     id="defs3765">
    <linearGradient
       id="linearGradient4657"
       osbPaint="solid">
      <stop
         style="stop-color:#000000;stop-opacity:1;"
         offset="0"
         id="stop4655" />
    </linearGradient>
    <filter
       inkscapeCollect="always"
       style="color-interpolation-filters:sRGB"
       id="filter4725">
      <feBlend
         inkscapeCollect="always"
         mode="exclusion"
         in2="BackgroundImage"
         id="feBlend4727" />
    </filter>
  </defs>
  <sodipodiNamedview
     pagecolor="#ffffff"
     bordercolor="#ffffff"
     borderopacity="0"
     objecttolerance="10"
     gridtolerance="10"
     guidetolerance="10"
     inkscapePageopacity="0"
     inkscapePageshadow="2"
     inkscapeWindow-width="1920"
     inkscapeWindow-height="1025"
     id="namedview3763"
     showgrid="false"
     inkscapeZoom="2.1031745"
     inkscapeCx="224.49652"
     inkscapeCy="103.31177"
     inkscapeWindow-x="0"
     inkscapeWindow-y="27"
     inkscapeWindow-maximized="1"
     inkscapeCurrent-layer="layer3"
     fit-margin-top="0"
     fit-margin-left="0"
     fit-margin-right="0"
     fit-margin-bottom="0"
     units="px"
     scale-x="0.9"
     viewbox-width="182.3"
     viewbox-x="2.7755576e-17" />
  <path
     id="Selection"
     d="m 28.299228,4.397237 c 1.36437,-2.71738 4.78801,-2.24458 7.2305,-1.91028 0,0 -0.23086,2.38786 -0.23086,2.38786 0,0 -1.38515,0 -1.38515,0 -0.21008,-1.26796 -1.0481,-1.79567 -1.95999,-0.68054 -0.5356,0.65427 -0.6972,1.76224 -0.81032,2.59083 0,0 3.9246,0 3.9246,0 0.11082,-0.81188 0.24933,-1.65002 0.61871,-2.38787 1.36437,-2.71738 4.78801,-2.24458 7.2305,-1.91028 -0.11543,1.46853 -0.0415,2.25175 -1.61601,2.38786 -0.21239,-1.27273 -1.04118,-1.7909 -1.96,-0.68054 -0.57253,0.69009 -0.73413,1.71926 -0.81031,2.59083 0,0 2.30859,0 2.30859,0 0,0 -0.23086,1.43271 -0.23086,1.43271 0,0 -2.53945,0 -2.53945,0 0,0 -1.28819,7.40237 -1.28819,7.40237 -0.19854,1.14617 -0.34398,2.60754 -1.14968,3.48866 -0.995,1.09364 -3.10044,1.33482 -4.4879,1.52585 0.25164,-2.18728 1.19816,-0.95276 1.86534,-3.34301 0,0 1.8284,-9.07387 1.8284,-9.07387 0,0 -4.15546,0 -4.15546,0 0,0 -1.33898,7.87994 -1.33898,7.87994 -0.21239,1.07454 -0.41785,2.47144 -1.25126,3.22361 -1.04117,0.94082 -3.00347,1.13185 -4.33553,1.31333 0.24933,-2.16102 1.17738,-0.97425 1.89997,-3.34301 0,0 1.79378,-9.07387 1.79378,-9.07387 0,0 -1.38516,0 -1.38516,0 0.15468,-1.3372 0.36245,-1.38973 1.61602,-1.43271 0.11081,-0.81188 0.24932,-1.65002 0.6187,-2.38787 z m 101.411742,1.29423 c -1.3159,0.65188 -2.56254,-0.26745 -2.41479,-1.53301 0.10158,-0.86918 0.60716,-1.29422 1.27896,-1.70732 2.75184,-0.75695 2.85803,2.38308 1.13583,3.24033 z m 20.31559,0 c -1.3159,0.65188 -2.56254,-0.26745 -2.41479,-1.53301 0.10158,-0.86918 0.60716,-1.29422 1.27896,-1.70732 2.75184,-0.75695 2.85804,2.38308 1.13583,3.24033 z M 7.2333377,2.861847 c 0,0 1.51675,-0.13611 1.51675,-0.13611 0,0 5.3097503,0 5.3097503,0 0,0 0,1.43272 0,1.43272 0,0 -1.84687,0 -1.84687,0 0,0 -1.8007,9.79023 -1.8007,9.79023 -0.33013,1.71209 -0.5494403,3.8349 -1.6137003,5.22941 -0.93729,1.22736 -2.52098,1.65718 -3.97309,1.69299 -1.53752,0.0358 -4.05850005,0.0215 -3.15353,-2.35443 0.72028,-1.88641 1.71759,0.58025 2.26242,0.76651 1.48442,0.50861 2.06849,-1.92462 2.27627,-2.94662 0,0 2.30859,-12.17809 2.30859,-12.17809 0,0 -1.84688,0 -1.84688,0 0,0 0.56099,-1.29661 0.56099,-1.29661 z M 106.1772,3.107797 c 0.45248,-0.59219 3.14199,-0.38683 3.91998,-0.38206 0.54252,0.005 1.24203,-0.0573 1.65065,0.38206 0.36706,0.394 0.60715,1.68105 0.74336,2.24459 0.39477,1.62613 1.17507,4.42232 1.29974,5.96965 0,0 4.07928,-6.20844 4.07928,-6.20844 0,0 1.54906,-2.1443 1.54906,-2.1443 0,0 1.75915,-0.24356 1.75915,-0.24356 0,0 3.9246,0 3.9246,0 0,0 -0.23086,1.43272 -0.23086,1.43272 0,0 -1.84687,0 -1.84687,0 0,0 -2.07773,11.46173 -2.07773,11.46173 0,0 1.61601,0 1.61601,0 0,0 0,1.19393 0,1.19393 0,0 -7.15663,0 -7.15663,0 0.3209,-1.88164 1.27203,-0.62323 1.91613,-1.94611 0,0 0.62332,-2.82961 0.62332,-2.82961 0.28627,-1.48525 1.0481,-4.86885 0.92344,-6.20844 -0.55868,1.51152 -3.09121,5.36552 -4.07697,6.9248 -0.6164,0.97663 -0.92575,2.03445 -2.16546,2.13713 -2.01078,0.16715 -1.86996,-0.95514 -2.26935,-2.61471 0,0 -1.64602,-6.44722 -1.64602,-6.44722 0,0 -1.84687,9.79023 -1.84687,9.79023 0,0 1.61601,0 1.61601,0 0,0 0,1.19393 0,1.19393 0,0 -5.0789,0 -5.0789,0 0,0 0.23086,-1.19393 0.23086,-1.19393 0,0 1.84687,0 1.84687,0 0,0 2.07773,-11.46173 2.07773,-11.46173 0,0 -1.61601,0 -1.61601,0 0.0277,-0.35102 0.009,-0.75695 0.23548,-1.05066 z m -92.124282,12.03243 c -0.5633,-1.26318 -0.44787,-2.27324 -0.17546,-3.5794 1.27204,-6.08666 7.80997,-5.63535 9.58296,-3.92565 1.182,1.13663 0.73875,3.05646 -0.42247,4.01161 -0.58869,0.48712 -1.55368,0.86679 -2.2832,1.06976 -0.79184,0.22207 -2.60639,0.44414 -3.4144,0.51578 -0.0392,0.394 -0.0531,0.8071 0,1.18915 0.49404,1.62852 2.22779,1.71926 3.37285,0.80471 0,0 1.26972,-1.27273 1.26972,-1.27273 0.45711,-0.27699 1.03194,-0.2364 1.54214,-0.24356 -1.35514,4.39605 -8.13778,4.42948 -9.47214,1.43033 z m 27.0105,0 c -0.56329,-1.26318 -0.44786,-2.27324 -0.17545,-3.5794 1.27203,-6.08666 7.80996,-5.63535 9.58296,-3.92565 1.182,1.13663 0.73875,3.05646 -0.42247,4.01161 -0.5887,0.48712 -1.55369,0.86679 -2.2832,1.06976 -0.79185,0.22207 -2.6064,0.44414 -3.41441,0.51578 -0.0392,0.394 -0.0531,0.8071 0,1.18915 0.49404,1.62852 2.22779,1.71926 3.37285,0.80471 0,0 1.26973,-1.27273 1.26973,-1.27273 0.4571,-0.27699 1.03194,-0.2364 1.54214,-0.24356 -1.35514,4.39605 -8.13778,4.42948 -9.47215,1.43033 z m 20.32252,-8.58913 c 0.47095,0.0143 1.0204,0.0286 1.23741,0.54682 0.21931,0.52532 -0.20085,2.17056 -0.31397,2.7914 0,0 -1.1543,0.002 -1.1543,0.002 -0.50558,-2.3998 -2.23702,-1.52823 -3.20201,0 -0.77569,1.23214 -1.43825,5.3321 -1.64603,6.92241 0,0 -3.46288,0 -3.46288,0 0,0 1.61601,-8.5963 1.61601,-8.5963 0,0 -1.38515,0 -1.38515,0 0,0 0.40169,-1.19631 0.40169,-1.19631 0,0 4.67721,-0.2364 4.67721,-0.2364 0,0 -0.23086,1.19393 -0.23086,1.19393 1.16353,-0.97903 1.91613,-1.4757 3.46288,-1.42794 z m 3.23664,9.1646 c 1.06657,0.4131 2.67335,-0.2555 2.6872,-1.27989 0.0115,-0.69009 -0.79184,-1.00529 -1.30666,-1.19393 -1.09889,-0.39877 -2.50251,-0.50861 -3.10043,-1.70493 -0.78493,-1.57599 0.33474,-3.64865 1.71528,-4.46053 2.05926,-1.07931 4.9727,-0.3534 7.15663,0 0,0 -0.46172,2.8129 -0.46172,2.8129 0,0 -1.1543,0 -1.1543,0 -0.27703,-1.09602 -0.64871,-1.86491 -1.84687,-2.05833 -1.16353,-0.18625 -2.40555,0.63756 -2.03848,1.52823 0.52866,1.28706 3.56908,0.81426 4.50636,2.68873 0.71567,1.4351 -0.097,3.41942 -1.32282,4.25517 -1.52136,1.03394 -3.58293,0.93126 -5.30052,0.7665 -0.53559,-0.0502 -1.54906,-0.10029 -1.95768,-0.37728 -0.78493,-0.44653 -0.54252,-2.25892 0,-2.74604 0.33012,-0.23162 0.6995,-0.20774 1.03424,-0.2364 0.187,0.91216 0.46403,1.64762 1.38977,2.0058 z m 16.15552,-9.03566 c 3.39593,0.84053 3.6545,4.55126 2.21394,7.26865 -1.15661,2.18011 -3.76762,3.46001 -6.13854,3.26659 -4.3517,-0.35818 -5.44366,-4.26711 -3.32207,-7.80114 0.9927,-1.6524 2.46096,-2.40458 4.2455,-2.7341 0.99039,-0.15999 2.02233,-0.20536 3.00117,0 z m 11.312086,0.0573 c 0.45941,-0.14327 0.90728,-0.18387 1.38515,-0.18387 3.66835,0 2.83957,3.43852 2.35477,5.96249 0,0 -0.50789,3.10422 -0.50789,3.10422 0,0 1.15429,0 1.15429,0 0,0 0,1.19393 0,1.19393 0,0 -4.84804,0 -4.84804,0 0,0 1.01578,-5.73087 1.01578,-5.73087 0.15468,-0.65905 0.40631,-1.72164 0,-2.2804 -0.89573,-1.07215 -2.11698,0.28415 -2.53021,1.08647 -0.48712,0.94798 -1.32052,5.65446 -1.48673,6.9248 0,0 -3.46289,0 -3.46289,0 0,0 1.61601,-8.5963 1.61601,-8.5963 0,0 -1.38515,-0.23878 -1.38515,-0.23878 0,0 0.23086,-1.19393 0.23086,-1.19393 0,0 4.84804,0 4.84804,0 0,0 -0.23086,0.95514 -0.23086,0.95514 0.60254,-0.40116 1.14968,-0.78561 1.84687,-1.0029 z m 47.326096,0 c 0.45941,-0.14327 0.90727,-0.18387 1.38515,-0.18387 3.66835,0 2.83957,3.43852 2.35476,5.96249 0,0 -0.50789,3.10422 -0.50789,3.10422 0,0 1.1543,0 1.1543,0 0,0 0,1.19393 0,1.19393 0,0 -4.84804,0 -4.84804,0 0,0 1.01578,-5.73087 1.01578,-5.73087 0.15468,-0.65905 0.40631,-1.72164 0,-2.2804 -0.89573,-1.07215 -2.11698,0.28415 -2.53021,1.08647 -0.48712,0.94798 -1.32052,5.65446 -1.48674,6.9248 0,0 -3.46288,0 -3.46288,0 0,0 1.61601,-8.5963 1.61601,-8.5963 0,0 -1.38515,-0.23878 -1.38515,-0.23878 0,0 0.23086,-1.19393 0.23086,-1.19393 0,0 4.84804,0 4.84804,0 0,0 -0.23086,0.95514 -0.23086,0.95514 0.60254,-0.40116 1.14967,-0.78561 1.84687,-1.0029 z m -9.0035,0.0477 c 0,0 -1.61602,8.83508 -1.61602,8.83508 0,0 1.38516,0 1.38516,0 0,0 -0.23086,1.19393 -0.23086,1.19393 0,0 -4.84804,0 -4.84804,0 0,0 1.61601,-8.59629 1.61601,-8.59629 0,0 -1.15429,0 -1.15429,0 0,0 0,-1.43272 0,-1.43272 0,0 4.84804,0 4.84804,0 z m 20.31559,0 c 0,0 -1.61601,8.83508 -1.61601,8.83508 0,0 1.38515,0 1.38515,0 0,0 -0.23086,1.19393 -0.23086,1.19393 0,0 -4.84804,0 -4.84804,0 0,0 1.61602,-8.59629 1.61602,-8.59629 0,0 -1.1543,0 -1.1543,0 0,0 0,-1.43272 0,-1.43272 0,0 4.84804,0 4.84804,0 z m -131.363392,4.7017 c 0.99039,-0.51339 1.7199,-1.87209 1.25126,-2.99438 -0.41555,-0.99813 -1.54676,-0.7283 -2.15161,0.22923 -0.16622,0.26267 -0.2978,0.6304 -0.39707,0.92888 0,0 -0.54483,2.14908 -0.54483,2.14908 0.63717,-0.0143 1.25587,-0.01 1.84225,-0.31281 z m 27.01051,0 c 0.99038,-0.51339 1.7199,-1.87209 1.25125,-2.99438 -0.41554,-0.99813 -1.54675,-0.7283 -2.1516,0.22923 -0.16622,0.26267 -0.29781,0.6304 -0.39708,0.92888 0,0 -0.54483,2.14908 -0.54483,2.14908 0.63717,-0.0143 1.25588,-0.01 1.84226,-0.31281 z m 29.80621,1.98431 c -0.0693,1.1414 0.0669,2.64575 1.59523,2.30906 1.72221,-0.38206 2.26935,-3.8755 2.30628,-5.41328 0.03,-1.3181 0.21701,-2.45233 -1.38284,-2.4977 -2.02233,0.75218 -2.39863,3.63432 -2.51867,5.60192 z m -5.39056,11.69813 c 0,0 4.6772,-0.2364 4.6772,-0.2364 0,0 -1.15429,5.73087 -1.15429,5.73087 0.46633,-0.42743 0.81031,-0.77367 1.38515,-1.05783 1.75222,-0.86202 4.25011,-0.46086 4.68182,1.77419 0.22163,1.15334 -0.73182,5.51117 -0.98808,6.92479 0,0 1.38516,0 1.38516,0 0,0 -0.23086,1.19393 -0.23086,1.19393 0,0 -4.84804,0 -4.84804,0 0,0 1.24202,-6.44723 1.24202,-6.44723 0.11312,-0.73545 0.13159,-1.75268 -0.79415,-1.92461 -0.92806,-0.17193 -1.72452,0.91933 -2.03387,1.68583 0,0 -1.41517,6.68601 -1.41517,6.68601 0,0 -3.46288,0 -3.46288,0 0,0 2.53945,-13.37202 2.53945,-13.37202 0,0 -1.38516,0 -1.38516,0 0,0 0.4017,-0.95753 0.4017,-0.95753 z m -53.36076,0.48473 c 0,0 1.4775,-0.24356 1.4775,-0.24356 0,0 4.84804,0 4.84804,0 -0.15467,1.3372 -0.36245,1.38974 -1.61601,1.43272 0.13159,1.66434 0.57484,6.58572 1.15429,7.87994 0.42017,-1.52584 2.48636,-5.5064 3.28974,-7.16358 0.51713,-1.06977 0.73414,-2.02491 2.02464,-2.13476 0.47557,-0.0406 1.27896,-0.0501 1.60678,0.36774 0.33936,0.4322 0.44094,2.34249 0.50327,2.96095 0.18469,1.78134 0.40169,4.57036 0.8865,6.20843 0,0 3.69374,-8.11872 3.69374,-8.11872 0,0 -1.38515,0 -1.38515,0 0,0 0.23086,-1.43272 0.23086,-1.43272 0,0 4.38632,0 4.38632,0 0,0 -0.23086,1.43272 -0.23086,1.43272 -2.03387,0.16954 -2.35707,1.8888 -3.17431,3.58179 0,0 -3.00117,6.20844 -3.00117,6.20844 -0.31858,0.65666 -0.97653,2.25414 -1.5329,2.62187 -0.51251,0.33907 -1.81686,0.24356 -2.44942,0.24356 0,0 -1.15429,-9.55144 -1.15429,-9.55144 0,0 -3.17431,6.44722 -3.17431,6.44722 0,0 -1.58831,2.86782 -1.58831,2.86782 0,0 -2.62487,0.2364 -2.62487,0.2364 0,0 -0.95807,-9.55144 -0.95807,-9.55144 -0.17545,-1.51869 0.11313,-2.81052 -1.58138,-3.10422 0,0 0.36937,-1.18916 0.36937,-1.18916 z m 18.33944,10.50181 c 0.15237,-3.90893 3.44673,-6.87942 7.1474,-6.92479 0.75722,-0.007 2.2832,-0.11462 2.76338,0.59935 0.42709,0.6304 -0.14544,2.88693 -0.28165,3.6988 0,0 -0.86572,4.77572 -0.86572,4.77572 0,0 1.1543,0 1.1543,0 0,0 -0.23086,1.19393 -0.23086,1.19393 -1.06195,0 -3.44673,0.33908 -4.15546,-0.47758 -2.82572,1.48048 -5.68375,1.07215 -5.53139,-2.86543 z m 20.99894,-6.92001 c 0.47095,0.0143 1.0204,0.0286 1.23741,0.54682 0.21931,0.52532 -0.20085,2.17056 -0.31397,2.79141 0,0 -1.1543,0.002 -1.1543,0.002 -0.50558,-2.3998 -2.23702,-1.52823 -3.20201,0 -0.77569,1.23213 -1.43825,5.33208 -1.64603,6.9224 0,0 -3.46288,0 -3.46288,0 0,0 1.61601,-8.59629 1.61601,-8.59629 0,0 -1.38515,0 -1.38515,0 0,0 0.40169,-1.19632 0.40169,-1.19632 0,0 4.6772,-0.2364 4.6772,-0.2364 0,0 -0.23085,1.19393 -0.23085,1.19393 1.16353,-0.97902 1.91613,-1.4757 3.46288,-1.42794 z m 1.14737,8.58913 c -0.5633,-1.26318 -0.44787,-2.27325 -0.17545,-3.57941 1.27203,-6.08666 7.80996,-5.63535 9.58296,-3.92564 1.18199,1.13663 0.73874,3.05647 -0.42248,4.01161 -0.58869,0.48712 -1.55368,0.86679 -2.28319,1.06976 -0.79185,0.22207 -2.6064,0.44414 -3.41441,0.51577 -0.0392,0.394 -0.0531,0.8071 0,1.18916 0.49404,1.62852 2.22779,1.71926 3.37285,0.80471 0,0 1.26973,-1.27273 1.26973,-1.27273 0.4571,-0.277 1.03194,-0.2364 1.54214,-0.24356 -1.35515,4.39605 -8.13778,4.42948 -9.47215,1.43033 z m 33.019766,-8.46019 c 3.39593,0.84053 3.65449,4.55126 2.21393,7.26865 -1.1566,2.18011 -3.76762,3.46 -6.13854,3.26658 -4.351686,-0.35818 -5.443646,-4.2671 -3.322056,-7.80113 0.99269,-1.6524 2.460956,-2.40458 4.245496,-2.7341 0.99038,-0.15998 2.02232,-0.20535 3.00117,0 z m 19.858486,9.03567 c 1.06657,0.41309 2.67335,-0.25551 2.6872,-1.2799 0.0115,-0.69009 -0.79185,-1.00529 -1.30667,-1.19393 -1.09888,-0.39877 -2.50251,-0.50862 -3.10043,-1.70494 -0.78492,-1.57598 0.33474,-3.64864 1.71528,-4.46051 2.05926,-1.07932 4.9727,-0.35341 7.15663,0 0,0 -0.46172,2.8129 -0.46172,2.8129 0,0 -1.15429,0 -1.15429,0 -0.27703,-1.09603 -0.64872,-1.86492 -1.84688,-2.05834 -1.16352,-0.18625 -2.40555,0.63756 -2.03848,1.52824 0.52867,1.28705 3.56908,0.81425 4.50637,2.68872 0.71566,1.4351 -0.097,3.41941 -1.32282,4.25517 -1.52137,1.03394 -3.58294,0.93126 -5.30053,0.7665 -0.53559,-0.0502 -1.54906,-0.10029 -1.95768,-0.37728 -0.78492,-0.44653 -0.54252,-2.25892 0,-2.74605 0.33013,-0.23162 0.6995,-0.20774 1.03425,-0.23639 0.18699,0.91216 0.46402,1.64763 1.38977,2.00581 z m 8.29938,-0.57548 c -0.5633,-1.26318 -0.44787,-2.27325 -0.17545,-3.57941 1.27203,-6.08666 7.80996,-5.63535 9.58295,-3.92564 1.182,1.13663 0.73875,3.05647 -0.42247,4.01161 -0.58869,0.48712 -1.55368,0.86679 -2.28319,1.06976 -0.79185,0.22207 -2.6064,0.44414 -3.41441,0.51577 -0.0392,0.394 -0.0531,0.8071 0,1.18916 0.49404,1.62852 2.22779,1.71926 3.37285,0.80471 0,0 1.26973,-1.27273 1.26973,-1.27273 0.4571,-0.277 1.03194,-0.2364 1.54213,-0.24356 -1.35514,4.39605 -8.13778,4.42948 -9.47214,1.43033 z m 13.86308,0.57548 c 1.06657,0.41309 2.67335,-0.25551 2.6872,-1.2799 0.0115,-0.69009 -0.79184,-1.00529 -1.30666,-1.19393 -1.09889,-0.39877 -2.50251,-0.50862 -3.10044,-1.70494 -0.78492,-1.57598 0.33475,-3.64864 1.71529,-4.46051 2.05926,-1.07932 4.9727,-0.35341 7.15663,0 0,0 -0.46172,2.8129 -0.46172,2.8129 0,0 -1.1543,0 -1.1543,0 -0.27703,-1.09603 -0.64871,-1.86492 -1.84687,-2.05834 -1.16353,-0.18625 -2.40555,0.63756 -2.03848,1.52824 0.52866,1.28705 3.56908,0.81425 4.50636,2.68872 0.71567,1.4351 -0.097,3.41941 -1.32282,4.25517 -1.52136,1.03394 -3.58293,0.93126 -5.30052,0.7665 -0.53559,-0.0502 -1.54907,-0.10029 -1.95769,-0.37728 -0.78492,-0.44653 -0.54251,-2.25892 0,-2.74605 0.33013,-0.23162 0.69951,-0.20774 1.03425,-0.23639 0.187,0.91216 0.46403,1.64763 1.38977,2.00581 z m -37.034396,-8.68704 c 0,0 4.478656,-0.24357 4.478656,-0.24357 0,0 -1.052706,5.96966 -1.052706,5.96966 -0.0947,0.63039 -0.22624,1.75507 0.26779,2.2422 0.819546,0.8071 1.918436,-0.31998 2.299356,-1.05305 0.49173,-0.93843 1.38977,-5.93622 1.48673,-7.15881 0,0 3.46289,0 3.46289,0 0,0 -1.61602,8.83509 -1.61602,8.83509 0,0 1.38516,0 1.38516,0 0,0 -0.23086,1.19393 -0.23086,1.19393 0,0 -4.84804,0 -4.84804,0 0,0 0.23086,-0.95515 0.23086,-0.95515 -0.65333,0.54682 -1.01116,0.87635 -1.846866,1.11036 -0.40401,0.11222 -1.20047,0.23401 -1.61602,0.21013 -4.31013,-0.23401 -1.85379,-5.94816 -1.61601,-8.96164 0,0 -1.15429,0 -1.15429,0 0,0 0.36937,-1.18915 0.36937,-1.18915 z m -32.694246,4.45813 c 0.99038,-0.51339 1.7199,-1.87208 1.25125,-2.99437 -0.41554,-0.99813 -1.54675,-0.72831 -2.1516,0.22923 -0.16622,0.26266 -0.29781,0.63039 -0.39708,0.92888 0,0 -0.54483,2.14907 -0.54483,2.14907 0.63717,-0.0143 1.25587,-0.01 1.84226,-0.31281 z m 23.111286,1.98431 c -0.0693,1.1414 0.0669,2.64575 1.59524,2.30906 1.72221,-0.38205 2.26934,-3.87549 2.30628,-5.41328 0.03,-1.31809 0.21701,-2.45232 -1.38285,-2.49769 -2.02232,0.75217 -2.39862,3.63432 -2.51867,5.60191 z m 38.066346,-1.98431 c 0.99038,-0.51339 1.7199,-1.87208 1.25125,-2.99437 -0.41554,-0.99813 -1.54675,-0.72831 -2.1516,0.22923 -0.16622,0.26266 -0.29781,0.63039 -0.39708,0.92888 0,0 -0.54483,2.14907 -0.54483,2.14907 0.63717,-0.0143 1.25587,-0.01 1.84226,-0.31281 z m -85.392442,1.50674 c -0.0369,0.51817 -0.0785,1.61658 0.2147,2.04401 0.17315,0.25072 0.40401,0.37489 0.69951,0.39877 1.14967,0.0907 1.69681,-1.28228 1.96461,-2.204 0,0 0.42478,-1.91028 0.42478,-1.91028 0.27241,-1.39929 0.35552,-1.64762 0.36937,-3.10422 -2.52329,0.15283 -3.50906,2.42846 -3.67297,4.77572 z"
     style="display:inline;fill:#ffffff;fill-opacity:1;stroke:#0e1624;stroke-width:0.23478909"
     inkscapeConnector-curvature="0" />
  <g
     inkscapeGroupmode="layer"
     id="layer2"
     inkscapeLabel="Logo"
     style="display:inline"
     transform="translate(-0.30070235,-132.82507)" />
</svg>
